<?xml version="1.0" encoding="UTF-8" standalone="no"?>
<!DOCTYPE svg PUBLIC "-//W3C//DTD SVG 1.1//EN" "http://www.w3.org/Graphics/SVG/1.1/DTD/svg11.dtd">
<svg width="100%" height="100%" viewBox="0 0 30 30" version="1.1" xmlns="http://www.w3.org/2000/svg" xmlns:xlink="http://www.w3.org/1999/xlink" xml:space="preserve" xmlns:serif="http://www.serif.com/" style="fill-rule:evenodd;clip-rule:evenodd;stroke-linejoin:round;stroke-miterlimit:2;">
    <g id="apart" transform="matrix(0.434783,0,0,0.434783,0,0)">
        <path d="M39,66.62L45.45,68.33C51.097,69.829 56.89,66.467 58.39,60.82L60.21,53.98C55.084,60.826 47.46,65.369 39,66.62ZM34.49,4.9C22.506,4.9 11.702,12.119 7.115,23.191C2.529,34.263 5.064,47.007 13.538,55.482C22.013,63.956 34.757,66.491 45.829,61.905C56.901,57.318 64.12,46.514 64.12,34.53C64.12,18.166 50.854,4.9 34.49,4.9ZM2.22,39.69L0.68,45.49C-0.819,51.137 2.543,56.93 8.19,58.43L14.19,60.03C7.785,54.995 3.512,47.733 2.22,39.69ZM51.26,49.37C51.685,47.163 51.214,44.878 49.951,43.019C48.688,41.16 46.738,39.879 44.53,39.46C39.942,38.578 35.508,41.582 34.625,46.169C33.743,50.757 36.745,55.191 41.333,56.075C45.92,56.959 50.355,53.957 51.24,49.37L51.26,49.37ZM30,45.28C29.115,49.867 24.68,52.869 20.093,51.985C15.505,51.101 12.503,46.667 13.385,42.079C14.268,37.492 18.702,34.488 23.29,35.37C25.494,35.794 27.44,37.076 28.698,38.935C29.957,40.793 30.425,43.076 30,45.28ZM33.59,38.43C31.554,38.036 30.221,36.068 30.611,34.032C31.001,31.995 32.966,30.658 35.003,31.044C37.041,31.43 38.381,33.392 38,35.43C37.616,37.471 35.651,38.814 33.61,38.43L33.59,38.43ZM45.64,33.69C41.053,32.805 38.051,28.37 38.935,23.783C39.819,19.195 44.253,16.193 48.841,17.075C53.428,17.958 56.432,22.392 55.55,26.98C54.663,31.557 50.24,34.553 45.66,33.68L45.64,33.69ZM60.78,10.61L54,8.82C60.869,14.104 65.335,21.919 66.4,30.52L68.25,23.52C69.733,17.895 66.396,12.128 60.78,10.61ZM17.71,19.68C18.595,15.093 23.03,12.091 27.617,12.975C32.205,13.859 35.207,18.293 34.325,22.881C33.442,27.468 29.008,30.472 24.42,29.59C22.216,29.166 20.27,27.884 19.012,26.025C17.753,24.167 17.285,21.884 17.71,19.68ZM29.81,2.39L23.51,0.72C17.863,-0.779 12.07,2.583 10.57,8.23L9,14.16C14.183,7.727 21.627,3.517 29.81,2.39Z" style="fill:rgb(220,32,38);"/>
    </g>
</svg>
