<?xml version="1.0" encoding="UTF-8" standalone="no"?>
<!DOCTYPE svg PUBLIC "-//W3C//DTD SVG 1.1//EN" "http://www.w3.org/Graphics/SVG/1.1/DTD/svg11.dtd">
<svg width="100%" height="100%" viewBox="0 0 30 30" version="1.1" xmlns="http://www.w3.org/2000/svg" xmlns:xlink="http://www.w3.org/1999/xlink" xml:space="preserve" xmlns:serif="http://www.serif.com/" style="fill-rule:evenodd;clip-rule:evenodd;stroke-linejoin:round;stroke-miterlimit:2;">
    <g transform="matrix(0.731707,0,0,0.714286,0,0)">
        <path d="M36.879,41.204L4.532,41.204C2.308,41.204 0.489,39.376 0.489,37.143L0.489,4.654C0.489,2.42 2.308,0.593 4.532,0.593L36.879,0.593C39.103,0.593 40.923,2.42 40.923,4.654L40.923,37.143C40.923,39.376 39.103,41.204 36.879,41.204ZM20.706,12.776C16.258,12.776 12.619,16.431 12.619,20.898C12.619,25.365 16.258,29.02 20.706,29.02C25.153,29.02 28.792,25.365 28.792,20.898C28.792,16.431 25.153,12.776 20.706,12.776ZM36.879,5.669C36.879,5.06 36.475,4.654 35.868,4.654L31.825,4.654C31.218,4.654 30.814,5.06 30.814,5.669L30.814,9.73C30.814,10.339 31.218,10.745 31.825,10.745L35.868,10.745C36.475,10.745 36.879,10.339 36.879,9.73L36.879,5.669ZM36.879,18.868L32.634,18.868C32.836,19.477 32.836,20.289 32.836,20.898C32.836,27.599 27.377,33.081 20.706,33.081C14.034,33.081 8.575,27.599 8.575,20.898C8.575,20.289 8.575,19.477 8.778,18.868L4.532,18.868L4.532,36.127C4.532,36.736 4.936,37.143 5.543,37.143L35.868,37.143C36.475,37.143 36.879,36.736 36.879,36.127L36.879,18.868Z" style="fill:rgb(80,59,217);"/>
    </g>
</svg>
