<?xml version="1.0" encoding="UTF-8" standalone="no"?>
<!DOCTYPE svg PUBLIC "-//W3C//DTD SVG 1.1//EN" "http://www.w3.org/Graphics/SVG/1.1/DTD/svg11.dtd">
<svg width="100%" height="100%" viewBox="0 0 30 30" version="1.1" xmlns="http://www.w3.org/2000/svg" xmlns:xlink="http://www.w3.org/1999/xlink" xml:space="preserve" xmlns:serif="http://www.serif.com/" style="fill-rule:evenodd;clip-rule:evenodd;stroke-linejoin:round;stroke-miterlimit:2;">
    <g transform="matrix(0.731707,0,0,0.714286,0,0)">
        <path d="M36.53,41.204L4.183,41.204C1.959,41.204 0.139,39.376 0.139,37.143L0.139,4.654C0.139,2.42 1.959,0.593 4.183,0.593L36.53,0.593C38.754,0.593 40.573,2.42 40.573,4.654L40.573,37.143C40.573,39.376 38.754,41.204 36.53,41.204ZM6.205,35.112L12.27,35.112L12.27,16.837L6.205,16.837L6.205,35.112ZM9.237,6.075C7.215,6.075 5.598,7.7 5.598,9.73C5.598,11.761 7.215,13.385 9.237,13.385C11.259,13.385 12.876,11.761 12.876,9.73C12.876,7.7 11.259,6.075 9.237,6.075ZM34.508,23.538C34.508,19.68 31.274,16.431 27.432,16.431C25.613,16.431 23.389,17.649 22.378,19.274L22.378,16.837L16.313,16.837L16.313,35.112L22.378,35.112L22.378,24.35C22.378,22.726 23.793,21.304 25.411,21.304C27.028,21.304 28.443,22.726 28.443,24.35L28.443,35.112L34.508,35.112L34.508,23.538Z" style="fill:rgb(80,59,217);"/>
    </g>
</svg>
