<svg 
 xmlns="http://www.w3.org/2000/svg"
 xmlns:xlink="http://www.w3.org/1999/xlink"
 width="225px" height="123px">
<path fill-rule="evenodd"  fill="rgb(80, 59, 217)"
 d="M223.580,121.524 C222.672,122.433 221.441,122.943 220.157,122.943 L194.839,122.943 L165.196,122.943 C165.196,122.943 165.196,34.936 165.196,7.836 C165.196,5.755 166.023,3.759 167.493,2.288 C168.964,0.816 170.959,-0.010 173.039,-0.010 L194.839,-0.010 L194.839,92.547 L224.999,92.547 C224.999,92.547 224.999,109.519 224.999,118.099 C224.999,119.384 224.488,120.616 223.580,121.524 ZM196.477,60.658 C196.477,60.658 204.159,60.658 211.549,60.658 C218.977,60.658 224.999,66.683 224.999,74.115 L224.999,89.195 L196.477,89.195 L196.477,60.658 ZM38.645,39.909 L159.630,39.909 L159.630,59.550 L159.768,59.550 L159.768,92.547 L159.817,92.547 L159.817,122.943 L153.925,122.943 L67.441,122.943 C66.157,122.943 64.926,122.433 64.018,121.524 C63.110,120.616 62.599,119.384 62.599,118.099 C62.599,109.519 62.599,92.547 62.599,92.547 L129.749,92.547 L129.749,66.152 L0.253,66.152 L0.391,39.909 L0.391,-0.010 C0.391,-0.010 116.578,-0.010 150.239,-0.010 C155.620,-0.010 159.982,4.354 159.982,9.738 C159.982,17.204 159.982,26.232 159.982,26.232 L38.645,26.232 L38.645,39.909 ZM28.253,74.602 C28.253,73.232 28.797,71.917 29.765,70.948 C30.734,69.980 32.047,69.435 33.417,69.435 C42.330,69.435 59.656,69.435 59.656,69.435 L59.656,92.599 L59.657,92.599 C59.657,92.599 59.657,108.721 59.657,117.482 C59.657,120.527 57.190,122.996 54.147,122.996 C42.555,122.996 15.817,122.996 4.835,122.996 C3.551,122.996 2.320,122.485 1.412,121.577 C0.504,120.668 -0.006,119.436 -0.006,118.151 C-0.006,109.571 -0.006,92.599 -0.006,92.599 L28.253,92.599 L28.253,74.602 Z"/>
</svg>