<?xml version="1.0" encoding="UTF-8" standalone="no"?>
<!DOCTYPE svg PUBLIC "-//W3C//DTD SVG 1.1//EN" "http://www.w3.org/Graphics/SVG/1.1/DTD/svg11.dtd">
<svg width="100%" height="100%" viewBox="0 0 400 400" version="1.1" xmlns="http://www.w3.org/2000/svg" xmlns:xlink="http://www.w3.org/1999/xlink" xml:space="preserve" xmlns:serif="http://www.serif.com/" style="fill-rule:evenodd;clip-rule:evenodd;stroke-linejoin:round;stroke-miterlimit:2;">
    <g transform="matrix(1.56925,0,0,1.56925,-184.1,-184.177)">
        <path d="M259.349,133.936C249.725,132.669 239.975,132.669 230.351,133.936L232.761,152.246C224.737,153.302 216.886,155.406 209.408,158.503L202.341,141.441C193.372,145.156 184.929,150.031 177.228,155.94L188.47,170.592C182.049,175.519 176.301,181.267 171.374,187.688L156.723,176.445C150.813,184.147 145.938,192.59 142.224,201.559L159.286,208.626C156.188,216.103 154.085,223.955 153.028,231.979L134.718,229.569C133.451,239.193 133.451,248.942 134.718,258.567L153.028,256.156C154.085,264.181 156.188,272.032 159.286,279.51L142.224,286.577C145.938,295.546 150.813,303.989 156.723,311.69L171.374,300.448C176.301,306.869 182.049,312.617 188.47,317.544L177.228,332.195C184.929,338.105 193.372,342.979 202.341,346.694L209.408,329.632C216.886,332.73 224.737,334.833 232.761,335.89L230.351,354.2C239.975,355.467 249.725,355.467 259.349,354.2L256.939,335.89C264.963,334.833 272.814,332.73 280.292,329.632L287.359,346.694C296.328,342.979 304.771,338.105 312.473,332.195L301.23,317.544C307.651,312.617 313.399,306.869 318.326,300.448L332.977,311.69C338.887,303.989 343.762,295.546 347.477,286.577L330.415,279.51C333.512,272.032 335.616,264.181 336.672,256.156L354.982,258.567C356.249,248.942 356.249,239.193 354.982,229.569L336.672,231.979C335.616,223.955 333.512,216.103 330.415,208.626L347.477,201.559C343.762,192.59 338.887,184.147 332.977,176.445L318.326,187.688C313.399,181.267 307.651,175.519 301.23,170.592L312.473,155.94C304.771,150.031 296.328,145.156 287.359,141.441L280.292,158.503C272.814,155.406 264.963,153.302 256.939,152.246L259.349,133.936ZM244.85,181.28C279.504,181.28 307.638,209.414 307.638,244.068C307.638,278.721 279.504,306.856 244.85,306.856C210.196,306.856 182.062,278.721 182.062,244.068C182.062,209.414 210.196,181.28 244.85,181.28Z" style="fill:rgb(80,59,217);"/>
    </g>
</svg>
