<?xml version="1.0" encoding="UTF-8" standalone="no"?>
<!DOCTYPE svg PUBLIC "-//W3C//DTD SVG 1.1//EN" "http://www.w3.org/Graphics/SVG/1.1/DTD/svg11.dtd">
<svg width="400px" height="400px" version="1.1" xmlns="http://www.w3.org/2000/svg" xmlns:xlink="http://www.w3.org/1999/xlink" xml:space="preserve" xmlns:serif="http://www.serif.com/" style="fill-rule:evenodd;clip-rule:evenodd;stroke-linejoin:round;stroke-miterlimit:2;">
    <g transform="matrix(1.23043,0,0,1.23043,-203.389,-46.9404)">
        <path d="M339.616,109.389C335.766,109.015 331.889,109.015 328.039,109.389L326.132,118.672C322.442,119.236 318.825,120.206 315.347,121.562L309.055,114.476C305.534,116.077 302.176,118.016 299.029,120.265L302.019,129.257C299.105,131.591 296.458,134.239 294.124,137.152L285.131,134.162C282.882,137.309 280.944,140.667 279.343,144.188L286.428,150.481C285.072,153.959 284.103,157.576 283.538,161.266L274.256,163.173C273.882,167.023 273.882,170.9 274.256,174.75L283.538,176.657C284.103,180.347 285.072,183.963 286.428,187.441L279.343,193.734C280.944,197.255 282.882,200.613 285.131,203.76L294.124,200.77C296.458,203.684 299.105,206.331 302.019,208.665L299.029,217.658C302.176,219.907 305.534,221.845 309.055,223.446L315.347,216.361C318.825,217.717 322.442,218.686 326.132,219.25L328.039,228.533C331.889,228.907 335.766,228.907 339.616,228.533L341.523,219.25C345.213,218.686 348.83,217.717 352.308,216.361L358.601,223.446C362.122,221.845 365.48,219.907 368.627,217.658L365.637,208.665C368.55,206.331 371.198,203.684 373.532,200.77L382.524,203.76C384.773,200.613 386.712,197.255 388.313,193.734L381.227,187.441C382.583,183.963 383.552,180.347 384.117,176.657L393.4,174.75C393.774,170.9 393.774,167.023 393.4,163.173L384.117,161.266C383.552,157.576 382.583,153.959 381.227,150.481L388.313,144.188C386.712,140.667 384.773,137.309 382.524,134.162L373.532,137.152C371.198,134.239 368.55,131.591 365.637,129.257L368.627,120.265C365.48,118.016 362.122,116.077 358.601,114.476L352.308,121.562C348.83,120.206 345.213,119.236 341.523,118.672L339.616,109.389ZM333.828,156.991C340.434,156.991 345.798,162.354 345.798,168.961C345.798,175.568 340.434,180.932 333.828,180.932C327.221,180.932 321.857,175.568 321.857,168.961C321.857,162.354 327.221,156.991 333.828,156.991Z" style="fill:rgb(29,118,218);"/>
    </g>
    <g transform="matrix(1,0,0,1,37.2127,-27.4704)">
        <circle cx="170.521" cy="188.056" r="60.483" style="fill:rgb(231,232,233);"/>
    </g>
    <g transform="matrix(1,0,0,1,37.2127,-27.4704)">
        <circle cx="170.521" cy="188.056" r="41.423" style="fill:rgb(255,0,110);"/>
    </g>
</svg>
