<?xml version="1.0" encoding="UTF-8" standalone="no"?><!DOCTYPE svg PUBLIC "-//W3C//DTD SVG 1.1//EN" "http://www.w3.org/Graphics/SVG/1.1/DTD/svg11.dtd"><svg width="100%" height="100%" viewBox="0 0 160 95" version="1.1" xmlns="http://www.w3.org/2000/svg" xmlns:xlink="http://www.w3.org/1999/xlink" xml:space="preserve" xmlns:serif="http://www.serif.com/" style="fill-rule:evenodd;clip-rule:evenodd;stroke-linejoin:round;stroke-miterlimit:2;"><path id="button" d="M125.173,65.471l0,2.414l-45.451,26.216l-45.343,-26.154l0,-2.414l45.343,26.154l45.451,-26.216Zm-63.122,-36.896l13.746,7.93l-12.615,7.276l-16.308,-9.406l-0.022,0.012l-12.584,-7.258l32.891,-18.971l12.586,-7.26l12.584,7.258l32.865,18.957l-0.041,0.025l0.001,0.001l-65.596,37.836l0.468,0.27l65.147,-37.577l0,2.42l-63.049,36.367l17.621,10.164l17.651,-10.181l-13.52,-7.799l0,-2.42l15.618,9.009l0.466,-0.27l-16.084,-9.277l12.583,-7.258l16.085,9.277l0.067,-0.039l12.583,7.258l-45.449,26.216l-0.023,0.013l-32.77,-18.902l-0.004,0.002l-12.586,-7.26l63.102,-36.398l-17.719,-10.22l-17.694,10.205Zm38.471,17.99l28.728,16.57l12.588,-7.261l0,2.42l-12.588,7.26l-28.728,-16.57l0,-2.419Zm-41.563,-0.002l0,2.42l-28.73,16.571l-12.58,-7.257l0,-2.419l12.58,7.256l28.73,-16.571Zm69.297,0.942l13.581,7.834l-12.587,7.26l-16.145,-9.313l-12.586,-7.26l28.731,-16.573l12.587,7.26l-16.145,9.313l0.466,0.269l15.68,-9.044l0,2.42l-13.582,7.834Zm-94.928,-1.21l0.467,-0.269l-16.146,-9.313l12.587,-7.26l28.729,16.571l-0.004,0.002l0.004,0.002l-28.729,16.571l-12.587,-7.26l13.581,-7.834l-13.581,-7.833l0,-2.42l15.679,9.043Zm-6.649,2.692l-12.586,7.259l-12.586,-7.259l0,-2.42l12.586,7.259l12.586,-7.259l0,2.42Zm118.714,7.257l-12.564,-7.248l0,-2.42l12.564,7.247l12.584,-7.258l0,2.419l-12.584,7.26Zm0.004,-2.958l-12.587,-7.26l12.587,-7.26l12.586,7.26l-12.586,7.26Zm-131.306,-0.002l-12.584,-7.258l12.584,-7.258l12.583,7.258l-12.583,7.258Zm61.706,-16.259l0,2.42l-12.615,7.276l-28.837,-16.633l0,-2.42l28.837,16.633l12.615,-7.276Zm23.765,-9.645l0.461,-0.266l-20.281,-11.698l-20.253,11.682l0.464,0.267l19.792,-11.416l19.817,11.431Z" style="fill:#241b62;fill-opacity:0.7;"/></svg>