<?xml version="1.0" encoding="UTF-8" standalone="no"?><!DOCTYPE svg PUBLIC "-//W3C//DTD SVG 1.1//EN" "http://www.w3.org/Graphics/SVG/1.1/DTD/svg11.dtd"><svg width="100%" height="100%" viewBox="0 0 160 95" version="1.1" xmlns="http://www.w3.org/2000/svg" xmlns:xlink="http://www.w3.org/1999/xlink" xml:space="preserve" xmlns:serif="http://www.serif.com/" style="fill-rule:evenodd;clip-rule:evenodd;stroke-linejoin:round;stroke-miterlimit:2;"><g><path id="button" d="M145.393,56.244l-12.564,-7.248l0,-2.42l12.564,7.247l12.584,-7.258l0,2.419l-12.584,7.26Zm-19.634,-9.719l16.079,-9.274l0,2.42l-16.079,9.274l0,-2.42Zm-66.338,19.069l65.752,-37.926l0,2.42l-65.752,37.926l0,-2.42Zm0.008,-35.506l0,-2.42l20.316,-11.719l20.449,11.796l0,2.42l-20.449,-11.795l-20.316,11.718Zm16.368,6.937l0,2.42l-12.615,7.276l-28.837,-16.633l0,-2.42l28.837,16.633l12.615,-7.276Zm-58.148,0.227l16.143,9.311l0,2.42l-16.143,-9.311l0,-2.42Zm9.03,11.735l-12.586,7.259l-12.586,-7.259l0,-2.42l12.586,7.259l12.586,-7.259l0,2.42Zm32.28,-2.424l0,2.42l-28.73,16.571l-12.58,-7.257l0,-2.419l12.58,7.256l28.73,-16.571Zm66.214,18.908l0,2.414l-45.451,26.216l-45.343,-26.154l0,-2.414l45.343,26.154l45.451,-26.216Zm-20.848,4.963l-20.449,-11.795l0,-2.42l20.449,11.795l0,2.42Zm-3.803,-23.869l28.728,16.57l12.588,-7.261l0,2.42l-12.588,7.26l-28.728,-16.57l0,-2.419Z" style="fill:#241b62;fill-opacity:0.7;"/><path id="up" d="M145.397,53.286l-12.587,-7.26l12.587,-7.26l12.586,7.26l-12.586,7.26Zm-3.56,2.053l-12.587,7.26l-28.731,-16.573l28.731,-16.573l12.587,7.26l-16.145,9.313l16.145,9.313Zm-16.683,-28.2l-65.596,37.836l20.187,11.644l20.215,-11.661l-16.084,-9.277l12.583,-7.258l28.735,16.496l-45.472,26.229l-45.36,-26.16l65.661,-37.874l-20.281,-11.698l-20.253,11.682l16.308,9.407l-12.615,7.276l-28.914,-16.652l45.477,-26.231l45.449,26.215l-0.041,0.025l0.001,0.001Zm-66.193,18.887l0.004,0.002l-28.729,16.571l-12.587,-7.26l16.146,-9.313l-16.146,-9.313l12.587,-7.26l28.729,16.571l-0.004,0.002Zm-44.87,7.258l-12.584,-7.258l12.584,-7.258l12.583,7.258l-12.583,7.258Z" style="fill:#503bd9;"/></g></svg>