<?xml version="1.0" encoding="UTF-8" standalone="no"?><!DOCTYPE svg PUBLIC "-//W3C//DTD SVG 1.1//EN" "http://www.w3.org/Graphics/SVG/1.1/DTD/svg11.dtd"><svg width="100%" height="100%" viewBox="0 0 160 95" version="1.1" xmlns="http://www.w3.org/2000/svg" xmlns:xlink="http://www.w3.org/1999/xlink" xml:space="preserve" xmlns:serif="http://www.serif.com/" style="fill-rule:evenodd;clip-rule:evenodd;stroke-linejoin:round;stroke-miterlimit:2;"><g><path id="button" d="M145.393,56.244l-12.564,-7.248l0,-2.42l12.564,7.247l12.584,-7.258l0,2.419l-12.584,7.26Zm-19.634,-9.719l16.079,-9.274l0,2.42l-16.079,9.274l0,-2.42Zm-66.338,19.069l65.752,-37.926l0,2.42l-65.752,37.926l0,-2.42Zm0.008,-35.506l0,-2.42l20.316,-11.719l20.449,11.796l0,2.42l-20.449,-11.795l-20.316,11.718Zm16.368,6.937l0,2.42l-12.615,7.276l-28.837,-16.633l0,-2.42l28.837,16.633l12.615,-7.276Zm-58.148,0.227l16.143,9.311l0,2.42l-16.143,-9.311l0,-2.42Zm9.03,11.735l-12.586,7.259l-12.586,-7.259l0,-2.42l12.586,7.259l12.586,-7.259l0,2.42Zm32.28,-2.424l0,2.42l-28.73,16.571l-12.58,-7.257l0,-2.419l12.58,7.256l28.73,-16.571Zm66.214,18.908l0,2.414l-45.451,26.216l-45.343,-26.154l0,-2.414l45.343,26.154l45.451,-26.216Zm-20.848,4.963l-20.449,-11.795l0,-2.42l20.449,11.795l0,2.42Zm-3.803,-23.869l28.728,16.57l12.588,-7.261l0,2.42l-12.588,7.26l-28.728,-16.57l0,-2.419Z" style="fill:#241b62;fill-opacity:0.7;"/></g></svg>