<?xml version="1.0" encoding="UTF-8" standalone="no"?><!DOCTYPE svg PUBLIC "-//W3C//DTD SVG 1.1//EN" "http://www.w3.org/Graphics/SVG/1.1/DTD/svg11.dtd"><svg width="100%" height="100%" viewBox="0 0 160 95" version="1.1" xmlns="http://www.w3.org/2000/svg" xmlns:xlink="http://www.w3.org/1999/xlink" xml:space="preserve" xmlns:serif="http://www.serif.com/" style="fill-rule:evenodd;clip-rule:evenodd;stroke-linejoin:round;stroke-miterlimit:2;"><g><path id="up" d="M145.397,53.286l-12.587,-7.26l12.587,-7.26l12.586,7.26l-12.586,7.26Zm-3.56,2.053l-12.587,7.26l-16.145,-9.313l-12.586,-7.26l28.731,-16.573l12.587,7.26l-16.145,9.313l16.145,9.313Zm-16.683,-28.2l-65.596,37.836l20.187,11.644l20.215,-11.661l-16.084,-9.277l12.583,-7.258l16.085,9.277l0.067,-0.039l12.583,7.258l-45.449,26.216l-0.023,0.013l-32.77,-18.902l-0.004,0.002l-12.586,-7.26l65.661,-37.874l-20.281,-11.698l-20.253,11.682l16.308,9.407l-12.615,7.276l-16.308,-9.406l-0.022,0.012l-12.584,-7.258l32.891,-18.971l12.586,-7.26l12.584,7.258l32.865,18.957l-0.041,0.025l0.001,0.001Zm-66.193,18.887l0.004,0.002l-28.729,16.571l-12.587,-7.26l16.146,-9.313l-16.146,-9.313l12.587,-7.26l28.729,16.571l-0.004,0.002Zm-44.87,7.258l-12.584,-7.258l12.584,-7.258l12.583,7.258l-12.583,7.258Z" style="fill:#503bd9;"/></g></svg>