<?xml version="1.0" standalone="no"?>
<!DOCTYPE svg PUBLIC "-//W3C//DTD SVG 1.1//EN" "http://www.w3.org/Graphics/SVG/1.1/DTD/svg11.dtd" >
<svg xmlns="http://www.w3.org/2000/svg" xmlns:xlink="http://www.w3.org/1999/xlink" version="1.1">
<metadata>
Created by FontForge 20170731 at Mon Apr 17 17:33:37 2017
 By Aleksey,,,
Copyright (C) 2014 by original authors Radcom
</metadata>
<defs>
<font id="Font" horiz-adv-x="1000" >
  <font-face 
    font-family="Font"
    font-weight="400"
    font-stretch="normal"
    units-per-em="1000"
    panose-1="2 0 5 3 0 0 0 0 0 0"
    ascent="800"
    descent="-200"
    bbox="0 -203 1099 800"
    underline-thickness="0"
    underline-position="10"
    unicode-range="U+E801-E842"
  />
<missing-glyph horiz-adv-x="957" 
d="M483 700q81 0 110 -89q3 -20 3 -23q0 -64 -94 -134q-98 -89 -98 -91h445q72 0 103 -82q5 -10 5 -31q0 -80 -86 -110q-13 -2 -22 -2h-445q179 -161 182 -177q10 -35 10 -48q0 -84 -91 -110q-9 -3 -22 -3q-55 0 -124 75q-318 286 -335 306q-24 31 -24 69q0 69 105 144
q319 296 333 296q21 10 45 10z" />
    <glyph glyph-name=".notdef" horiz-adv-x="957" 
d="M483 700q81 0 110 -89q3 -20 3 -23q0 -64 -94 -134q-98 -89 -98 -91h445q72 0 103 -82q5 -10 5 -31q0 -80 -86 -110q-13 -2 -22 -2h-445q179 -161 182 -177q10 -35 10 -48q0 -84 -91 -110q-9 -3 -22 -3q-55 0 -124 75q-318 286 -335 306q-24 31 -24 69q0 69 105 144
q319 296 333 296q21 10 45 10z" />
    <glyph glyph-name=".notdef" horiz-adv-x="957" 
d="M483 700q81 0 110 -89q3 -20 3 -23q0 -64 -94 -134q-98 -89 -98 -91h445q72 0 103 -82q5 -10 5 -31q0 -80 -86 -110q-13 -2 -22 -2h-445q179 -161 182 -177q10 -35 10 -48q0 -84 -91 -110q-9 -3 -22 -3q-55 0 -124 75q-318 286 -335 306q-24 31 -24 69q0 69 105 144
q319 296 333 296q21 10 45 10z" />
    <glyph glyph-name=".null" horiz-adv-x="0" 
 />
    <glyph glyph-name="nonmarkingreturn" horiz-adv-x="333" 
 />
    <glyph glyph-name="uniE801" unicode="&#xe801;" horiz-adv-x="1099" 
d="M49 688h160q48 0 74 -118h750q66 0 66 -50v-5q0 -23 -168 -377q-20 -24 -181 -24l-297 -22q22 -72 28 -72h478q76 0 102 -74q5 -15 5 -30q-18 -102 -102 -102h-5q-70 0 -99 80q-3 19 -3 22h-478q-17 -102 -101 -102h-6q-86 0 -102 105q0 70 80 99q14 2 28 2h87v3
l-195 561h-110q-60 4 -60 49v6q7 49 49 49zM321 465l97 -272l5 3q19 0 437 28q0 6 107 241h-646z" />
    <glyph glyph-name="uniE802" unicode="&#xe802;" horiz-adv-x="904" 
d="M41 702h4q11 0 351 -142q53 -23 58 -23q379 159 405 165h4q41 -6 41 -41v-653q0 -37 -75 -56q-332 -143 -375 -154h-4q-41 11 -351 142q-99 34 -99 59v662q6 41 41 41zM86 596v-558q37 -14 323 -134v558q-22 7 -323 134zM495 462v-558q286 120 323 134v558
q-301 -127 -323 -134zM167 476h5q16 0 183 -81q13 -17 13 -32q-7 -43 -43 -43h-2q-15 0 -183 81q-13 16 -13 32q6 43 40 43zM732 476h5q40 -8 40 -41v-2q0 -39 -88 -65q-94 -48 -108 -48h-2q-43 7 -43 43t65 57q105 51 131 56zM163 320h13q177 -73 186 -88q6 -19 6 -27
q0 -31 -43 -41q-14 0 -185 81q-13 18 -13 32v2q7 41 36 41zM728 320h13q29 0 36 -41v-2q0 -37 -83 -63q-100 -50 -118 -50q-31 0 -40 43q0 38 86 66q96 47 106 47zM170 166q12 0 180 -79q18 -19 18 -34q0 -33 -36 -43h-11q-15 0 -179 80q-15 13 -15 38q0 30 43 38zM735 166
q42 -7 42 -43t-58 -54q-122 -59 -136 -59h-11q-36 9 -36 46q0 32 83 61q102 49 116 49z" />
    <glyph glyph-name="uniE803" unicode="&#xe803;" 
d="M645 460h23q3 -1 3 -3v-278q0 -26 20 -35l8 -1h30v78q0 65 52 85q19 3 31 3h106q51 0 77 -57q5 -15 5 -26v-108q0 -62 -67 -85q-9 -1 -14 -1h-42q-32 5 -32 21h-2q0 -15 -8 -21h-187q-60 0 -82 67q-2 10 -2 21v251q0 67 68 88q7 1 13 1zM297 399h99q54 0 74 -50
q6 -20 6 -41q0 -20 -4 -20h-118q-20 0 -25 -9v-5q0 -12 25 -12h76q49 0 77 -58q5 -21 5 -40v-34q0 -69 -59 -92q-13 -4 -22 -4h-350q-42 0 -70 44q-11 19 -11 42v147q0 62 67 85q9 1 14 1h23q3 -1 3 -3v-173q3 -32 31 -32h245q18 0 18 15q0 12 -21 12h-67q-77 0 -93 65
q-1 15 -1 21v46q0 70 62 92q11 3 16 3zM841 172v-29h24q19 0 28 24v3q0 23 -30 29q-22 -8 -22 -27z" />
    <glyph glyph-name="uniE804" unicode="&#xe804;" horiz-adv-x="993" 
d="M45 598h903q28 -4 28 -12q-3 -5 -479 -378q-477 373 -480 378q0 8 28 12zM10 583h5q249 -238 300 -293q-47 -60 -303 -362q-12 14 -12 30v595q0 11 10 30zM978 583h5q10 -19 10 -30v-595q0 -22 -15 -30l-300 362q51 55 300 293zM370 238q105 -101 127 -122q21 21 126 122
q335 -293 355 -313q-14 -12 -30 -12h-903q-21 0 -30 15z" />
    <glyph glyph-name="uniE805" unicode="&#xe805;" horiz-adv-x="961" 
d="M478 700h5q27 0 96 -79l111 -106v36q7 46 43 46h5q43 -8 43 -39v-137q4 0 168 -163q12 -13 12 -29v-7q0 -30 -41 -39h-7q-26 0 -96 80l-336 329q-363 -357 -414 -404q-8 -5 -14 -5h-12q-41 9 -41 39v7q0 26 65 79q305 305 396 390zM481 537q84 -80 391 -385v-300
q-4 -53 -43 -53h-89q-5 0 -5 5v348h-180v-348q0 -5 -5 -5h-418q-39 0 -43 53v300q307 305 392 385zM226 152v-175h180v175h-180z" />
    <glyph glyph-name="uniE806" unicode="&#xe806;" horiz-adv-x="998" 
d="M20 678h958q20 0 20 -20v-135q0 -20 -20 -20h-958q-20 0 -20 20v135q0 20 20 20zM843 586q0 -31 42 -38q32 0 38 43q0 31 -43 37q-31 0 -37 -42zM20 454h958q20 0 20 -20v-135q0 -20 -20 -20h-958q-20 0 -20 20v135q0 20 20 20zM40 411v-40h35q5 0 5 5v35h-40zM90 411
v-35q1 -5 5 -5h35v40h-40zM40 361v-40h40v35q0 5 -5 5h-35zM90 356v-35h40v40h-35q-5 -1 -5 -5zM20 229h958q20 0 20 -20v-135q0 -20 -20 -20h-958q-20 0 -20 20v135q0 20 20 20zM20 5h958q20 0 20 -20v-135q0 -20 -20 -20h-958q-20 0 -20 20v135q0 20 20 20z" />
    <glyph glyph-name="uniE807" unicode="&#xe807;" horiz-adv-x="898" 
d="M43 699h316q40 0 45 -54v-289q0 -61 -61 -61h-285q-58 0 -58 45v316q8 43 43 43zM539 699h316q43 -8 43 -43v-316q0 -45 -58 -45h-285q-61 0 -61 61v285q0 46 34 56q3 2 11 2zM58 205h285q61 0 61 -61v-285q0 -58 -45 -58h-316q-43 8 -43 43v316q0 45 58 45zM555 205h285
q58 0 58 -45v-316q-8 -43 -43 -43h-316q-45 0 -45 58v285q0 61 61 61z" />
    <glyph glyph-name="uniE808" unicode="&#xe808;" horiz-adv-x="970" 
d="M483 704h8q12 0 291 -126q128 -57 152 -70v-6q-6 -11 -168 -78q-235 -110 -275 -121h-8q-12 0 -291 126q-130 58 -152 71v5q15 14 197 92q230 107 246 107zM38 445q396 -171 409 -181q2 -5 2 -11v-450q0 -6 -5 -6q-401 168 -414 181v461q0 6 8 6zM942 445q5 -1 5 -6v-450
q0 -21 -63 -40q-287 -128 -351 -152q-5 0 -5 6v450q0 21 63 40q329 146 351 152z" />
    <glyph glyph-name="uniE809" unicode="&#xe809;" horiz-adv-x="944" 
d="M470 699h4q42 0 59 -92q3 -2 74 -217h295q42 -7 42 -43v-4q0 -29 -71 -71l-184 -135q92 -281 92 -288v-9q-8 -40 -38 -40h-11q-17 0 -203 141q-4 0 -55 38h-4q-245 -179 -255 -179h-14q-30 0 -38 40v9l92 291h-2q-225 160 -246 179q-7 12 -7 24v4q7 43 42 43h293
q6 0 90 269q15 40 45 40z" />
    <glyph glyph-name="uniE810" unicode="&#xe810;" horiz-adv-x="993" 
d="M365 600q112 0 131 -117q0 -3 -7 -64q12 0 12 -18v-5q0 -74 -24 -74q-7 -45 -35 -82v-60q26 -22 139 -59q52 0 107 -65q37 -55 37 -119v-7q-6 -30 -30 -30h-665q-30 6 -30 30v5q0 125 107 176q86 20 176 65v64q-35 50 -35 84q-25 0 -25 75v2q0 18 13 18q-5 33 -5 64v3
q0 77 107 112q13 2 27 2zM663 538q82 0 114 -72q7 -22 7 -37q-2 -24 -2 -57q7 -3 7 -15v-10q0 -62 -22 -62q0 -33 -32 -75v-22q0 -42 12 -42q75 -35 152 -55q94 -48 94 -159v-5q0 -20 -27 -27h-226v5q22 10 22 32q0 100 -77 176q-56 34 -92 38l-2 5v54q-23 24 -32 77
q-23 0 -23 65v7q4 13 13 13q-5 21 -5 54v13q0 58 89 94z" />
    <glyph glyph-name="uniE811" unicode="&#xe811;" horiz-adv-x="1001" 
d="M140 550q95 -33 95 -58v-5q0 -15 -120 -275q-12 -7 -20 -7h-10q-38 0 -82 40l-3 10q0 30 120 285q14 10 20 10zM856 542h7q27 0 60 -102q5 -5 78 -180q0 -39 -88 -60h-15q-18 0 -112 232q-23 41 -23 60q0 24 93 50zM571 500h10q24 0 105 -28q19 -2 42 -2h8
q18 -13 105 -235q12 -27 12 -30l-60 -38h-5q-196 175 -205 175q-4 3 -10 3q-32 0 -115 -60q-19 -8 -35 -8q-60 20 -60 58q14 61 160 155q22 10 48 10zM430 497q35 -3 35 -12q-122 -121 -122 -128v-25q0 -49 72 -77l13 -3q46 0 128 70h7q13 0 110 -87q104 -93 118 -98
q-15 -35 -43 -35h-12q-7 0 -23 5v-10q-11 -47 -47 -47h-5q-13 0 -30 5q-12 -53 -50 -53h-3q-18 0 -27 5q0 -55 -50 -55q-31 7 -31 15q71 60 71 80v5q-13 60 -58 60l-18 -2q0 41 -55 52h-27q0 44 -60 50l-13 -2q0 2 -2 2q0 3 2 3q-14 52 -52 52h-8q-27 0 -72 -52
q-5 0 -20 -15q-11 3 -15 12q5 23 112 258l18 -3q29 0 127 28q18 2 30 2zM245 245h3q37 -11 37 -33v-15q-20 -23 -82 -77h-23q-30 6 -30 30v15q81 80 95 80zM318 192q42 -11 42 -40q0 -17 -87 -87h-5q-45 0 -45 32v13q83 82 95 82zM400 142q43 -13 43 -37q0 -17 -58 -63
q-23 -28 -40 -28q-40 3 -40 36v12q84 80 95 80zM478 90q40 -11 40 -40q0 -15 -75 -78q0 -7 -20 -10q-43 0 -43 45q83 83 98 83z" />
    <glyph glyph-name="uniE812" unicode="&#xe812;" horiz-adv-x="900" 
d="M441 700h18q218 0 367 -200q74 -118 74 -241v-18q0 -218 -200 -367q-118 -74 -241 -74h-18q-218 0 -367 200q-74 118 -74 241v18q0 218 200 367q118 74 241 74zM277 462h142v173q-64 -23 -106 -95q-36 -65 -36 -78zM482 635v-173h141q-42 122 -123 166q-3 0 -18 7z
M124 462h88q12 55 67 137h-2q-97 -48 -153 -137zM621 599q44 -59 68 -137h87q-61 94 -155 137zM90 401q-20 -51 -29 -119h25q4 -1 4 -5v-54q0 -4 -4 -4h-25q9 -69 29 -120h720q20 51 29 120h-24q-5 0 -5 4v54q1 5 5 5h24q-9 68 -29 119h-720zM151 315h27q7 0 25 -78h4
q17 78 23 78h27q8 -4 24 -81h3q19 81 24 81h27q5 0 5 -4q-39 -125 -43 -126h-29q-6 0 -23 76q-4 0 -22 -74l-5 -2h-27q-5 2 -45 128zM358 315h27q6 0 25 -81h2q19 81 25 81h27q5 0 22 -78q4 1 27 78h29q5 0 5 -4q-38 -118 -43 -126h-29q-5 1 -25 76h-2q-17 -76 -23 -76h-27
q-6 0 -45 128zM565 315h25q6 0 27 -81h2q17 81 25 81h27q4 0 22 -81h2q21 81 27 81h27l5 -2q-40 -124 -45 -128h-27q-7 0 -25 79h-2q-18 -79 -23 -79h-29q-5 0 -43 128zM124 39q61 -95 155 -138q-55 82 -67 138h-88zM277 39q42 -123 124 -167l18 -7v174h-142zM482 39v-174
q63 23 105 95q36 65 36 79h-141zM689 39q-13 -56 -68 -138h2q97 48 153 138h-87z" />
    <glyph glyph-name="uniE813" unicode="&#xe813;" horiz-adv-x="900" 
d="M434 700h32q281 0 414 -97q20 -23 20 -40v-119q0 -74 -236 -122q-103 -16 -198 -16h-32q-281 0 -414 97q-20 23 -20 41v119q0 73 236 121q103 16 198 16zM0 347h5q0 -36 123 -83q147 -41 306 -41h32q276 0 412 95q18 21 18 29h4v-155q0 -85 -279 -129q-93 -11 -171 -11
q-280 0 -421 90q-29 28 -29 50v155zM0 95h5q0 -44 148 -90q133 -36 299 -36q269 0 412 85q32 26 32 41h4v-158q0 -73 -236 -121q-103 -16 -198 -16h-32q-281 0 -414 97q-20 23 -20 40v158z" />
    <glyph glyph-name="uniE814" unicode="&#xe814;" horiz-adv-x="675" 
d="M331 700h13q174 0 284 -164q47 -80 47 -167v-11q0 -163 -337 -558q-323 370 -338 558v11q0 174 164 284q80 47 167 47zM113 360q0 -119 114 -193q55 -29 113 -29q119 0 193 114q30 55 30 113q0 119 -115 193q-55 30 -113 30q-119 0 -193 -115q-29 -55 -29 -113zM331 475
h13q72 0 104 -88q2 -8 2 -18v-13q0 -72 -88 -104q-8 -2 -18 -2h-13q-72 0 -104 88q-2 8 -2 18v13q0 72 88 104q8 2 18 2z" />
    <glyph glyph-name="uniE815" unicode="&#xe815;" horiz-adv-x="802" 
d="M553 470h30q112 0 219 -68q-89 -142 -102 -157q-64 37 -125 37h-14q-57 0 -126 -37l-100 157q107 68 218 68zM231 468h6l98 -156q-47 -30 -102 -30q-53 0 -101 30zM98 262h2q74 -37 119 -37h18q62 0 128 37h2l100 -157q-104 -68 -232 -68h-4q-127 0 -231 68
q98 154 98 157zM571 225q53 0 99 -30q-99 -153 -99 -156h-6q0 4 -98 156q44 30 104 30z" />
    <glyph glyph-name="uniE816" unicode="&#xe816;" horiz-adv-x="900" 
d="M333 700h9q194 0 304 -196q29 -75 29 -137v-9q0 -81 -45 -166v-3q261 -256 261 -265q9 -19 9 -36v-2q0 -68 -74 -86h-14q-45 0 -114 83q-188 187 -192 187q-80 -45 -164 -45h-9q-179 0 -288 169q-45 79 -45 164v9q0 194 196 304q75 29 137 29zM86 374v-18
q0 -141 144 -223q53 -22 101 -22h13q141 0 223 144q23 53 23 101v18q0 125 -129 209q-57 32 -117 32h-13q-132 0 -214 -129q-31 -58 -31 -112z" />
    <glyph glyph-name="uniE817" unicode="&#xe817;" 
d="M174 396q32 0 53.5 21t21.5 54t-21.5 54t-53 21t-52.5 -21t-21 -54t21 -54t52 -21zM770 267q28 -28 29 -70.5t-29 -70.5l-249 -251q-28 -28 -70.5 -28t-72.5 28l-350 349q-28 29 -28 71v251q0 42 28 70.5t71 30.5h251q42 -2 70 -30zM577 560l50 52l345 -345
q28 -28 28 -70.5t-28 -70.5l-270 -270l-49 49l286 291z" />
    <glyph glyph-name="uniE818" unicode="&#xe818;" 
d="M500 -171q11 -2 20 2q49 12 69 56q7 18 7 36h-190q0 -40 27 -67t67 -27zM810 376q-2 112 -68 193.5t-171 107.5v32q0 31 -20 51t-50 20t-50 -20t-22 -51v-32q-105 -26 -170 -107.5t-67 -193.5v-261l-96 -96v-47h810v47l-96 96v261zM904 401h96q-7 113 -59.5 210.5
t-136.5 161.5l-70 -67q74 -53 118.5 -132.5t51.5 -172.5zM266 706l-67 67q-87 -64 -138.5 -161.5t-60.5 -210.5h96q7 93 51.5 172.5t118.5 132.5z" />
    <glyph glyph-name="uniE819" unicode="&#xe819;" 
d="M901 -52h-802v601h802v-601zM901 650h-802q-43 -2 -71 -30.5t-28 -70.5v-601q0 -42 28 -70.5t71 -30.5h802q43 2 71 30.5t28 70.5v601q0 42 -28 70.5t-71 30.5zM451 -3h98v52h52q21 0 35 14t14 35v151q0 21 -14 35t-35 14h-150v52h199v98h-101v52h-98v-52h-52
q-21 0 -35 -14t-14 -35v-150q0 -22 14 -36t35 -14h150v-51h-199v-99h101v-52z" />
    <glyph glyph-name="uniE820" unicode="&#xe820;" horiz-adv-x="999" 
d="M652 338l-45 -47q-25 -23 -41.5 -55t-16.5 -86h-99v26q3 85 59 141l61 63q28 28 28 70.5t-28 70.5t-70.5 28t-70.5 -28t-30 -70h-99q2 84 58.5 140.5t141 56.5t140.5 -56.5t59 -140.5q0 -68 -47 -113zM549 -49h-99v99h99v-99zM499 800q-213 -5 -353.5 -145.5
t-145.5 -354.5q5 -213 145.5 -353.5t353.5 -145.5q214 5 354.5 145.5t145.5 353.5q-5 214 -146.5 354.5t-353.5 145.5z" />
    <glyph glyph-name="uniE821" unicode="&#xe821;" 
d="M801 1q-44 0 -72 -28t-28 -71.5t29 -71.5t71 -28t70.5 28t28.5 71.5t-28.5 71.5t-70.5 28zM0 800v-98h101l180 -380l-68 -124q-11 -21 -11 -47q0 -42 28 -70t70 -31h600v101h-579q-12 0 -12 12q0 4 3 7l44 82h373q28 0 50 14t36 37l178 324q7 11 7 23q0 21 -14 35t-35 17
h-740l-47 98h-164zM300 1q-42 0 -70 -28t-28 -71.5t28 -71.5t70 -28t71.5 28t29.5 71.5t-29.5 71.5t-71.5 28z" />
    <glyph glyph-name="uniE822" unicode="&#xe822;" 
d="M635 610q156 -4 258.5 -106.5t106.5 -258.5q-4 -155 -106.5 -257.5t-258.5 -106.5q-155 4 -257.5 106.5t-106.5 257.5q4 156 106.5 258.5t257.5 106.5zM635 518q-115 -2 -193 -79.5t-80 -193.5q2 -115 80 -192.5t193 -80.5q115 3 193 80.5t80 192.5q-2 116 -80 193.5
t-193 79.5zM591 427h68v-171l104 -107l-47 -49l-125 126v201zM45 -28q-20 0 -32.5 13t-12.5 32t12.5 32t32.5 15h172q22 -49 54 -92h-226zM89 201q-19 0 -31.5 12.5t-12.5 32t12.5 32t31.5 12.5h94l-2 -45l2 -44h-94zM134 427q-19 2 -32 14.5t-13 32t13 32t32 12.5h137
q-32 -42 -54 -91h-83z" />
    <glyph glyph-name="uniE823" unicode="&#xe823;" horiz-adv-x="897" 
d="M894 702l3 -6v-416q0 -9 -52 -9h-429q-5 0 -5 6v349q0 8 199 32q6 3 284 44zM364 623l3 -6v-340q0 -6 -9 -6q-75 0 -355 -3l-3 6v290q0 10 293 47q0 4 71 12zM3 230q69 -3 103 -3h255q6 -1 6 -6v-346h-3q-364 46 -364 53v296zM416 227h112q130 0 366 -3l3 -6v-413l-3 -6
q-462 64 -483 70v352q1 6 5 6z" />
    <glyph glyph-name="uniE824" unicode="&#xe824;" 
d="M674 352h10q66 0 88 -41q11 -26 11 -59v-4q0 -69 -47 -91q-24 -10 -56 -10q-78 0 -97 52q-9 23 -9 53q0 70 56 93q23 7 44 7zM85 349h73q1 0 1 -1v-36q0 -1 -1 -1h-79q-23 0 -31 -39q-2 -11 -2 -21v-13q0 -26 17 -45q8 -7 19 -7h77q1 0 1 -1v-33q0 -2 -1 -2h-84
q-51 0 -70 57q-5 19 -5 39v1q0 65 41 91q20 11 44 11zM490 349h34q2 0 2 -1v-51h35q1 0 1 -1v-28q0 -2 -1 -2h-35v-66q0 -21 25 -21h9q1 0 1 -1v-26q0 -2 -1 -2h-36q-21 0 -33 23q-3 9 -3 21v72h-23q-1 0 -1 2v28q0 1 1 1h23v51q1 1 2 1zM863 349h124q1 0 1 -1v-32
q0 -1 -1 -1h-108q-21 0 -27 -18v-4v-2q0 -16 19 -22q6 -1 9 -1h60q41 0 56 -33q4 -9 4 -22v-3q0 -36 -33 -55q-14 -5 -25 -5h-111h-22q-2 0 -2 2v33q1 1 2 1h109q21 0 27 17v6q0 25 -34 25h-54q-41 0 -59 35q-3 12 -3 20q0 39 37 55q11 5 31 5zM622 253v-5q0 -52 33 -62
q12 -4 24 -4h4q37 0 47 32q5 19 5 37q0 55 -45 65q-6 1 -13 1q-37 0 -51 -36q-4 -13 -4 -28zM239 297h59q1 0 1 -1v-28q0 -1 -1 -1h-40q-31 0 -37 -16q-2 0 -4 -14h81q1 -1 1 -2v-28q0 -1 -1 -1h-80v-4q0 -18 19 -24q6 -1 14 -1h47q2 0 2 -1v-26q0 -1 -2 -1h-57
q-38 0 -54 28q-13 19 -13 43v5q0 41 40 67q12 5 25 5zM324 297h69q43 0 51 -17q10 -13 10 -30v-98q0 -2 -1 -2h-36q-1 0 -1 2v96q-4 16 -16 16h-39v-112q0 -2 -1 -2h-36q-1 0 -1 2v144q0 1 1 1z" />
    <glyph glyph-name="uniE825" unicode="&#xe825;" horiz-adv-x="900" 
d="M449 699h2q58 -57 110 -110q0 -2 -3 -2h-86v-258q0 -1 -21 -21h-2q-1 0 -21 21v258h-86q-3 0 -3 2q57 59 110 110zM134 568h153q2 -1 2 -3l-61 -62l180 -180v-30q0 -2 -2 -2h-30l-180 180l-62 -61q-3 0 -3 2v153q1 3 3 3zM319 568h87q2 -1 2 -3v-211q0 -2 -2 -2l-151 151
q26 28 64 65zM494 568h87q27 -26 64 -65q-62 -63 -152 -151l-1 2v211q0 3 2 3zM613 568h153q3 -1 3 -3v-153q0 -2 -3 -2l-62 61l-180 -180h-30q-2 0 -2 2v30l180 180l-61 62q1 3 2 3zM196 444q63 -62 151 -152l-2 -1h-211q-3 0 -3 2v87q26 27 65 64zM704 444q28 -26 65 -64
v-87q0 -2 -3 -2h-211q-2 0 -2 2zM110 360q2 -1 2 -3v-86h258q1 0 21 -21v-2q0 -1 -21 -21h-258v-86q0 -3 -2 -3q-59 57 -110 110v2q57 58 110 110zM790 360q59 -57 110 -110v-2q-57 -58 -110 -110q-2 0 -2 3v86h-258q-1 0 -21 21v2q0 1 21 21h258v86q0 3 2 3zM134 207h211
q2 0 2 -2l-151 -151q-28 26 -65 64v87q1 2 3 2zM376 207h30q2 0 2 -2v-30l-180 -180l61 -62q0 -3 -2 -3h-153q-3 0 -3 3v153q1 2 3 2l62 -61zM494 207h30l180 -180l62 61q3 -1 3 -2v-153q0 -3 -3 -3h-153q-2 0 -2 3l61 62l-180 180v30q0 2 2 2zM555 207h211q3 0 3 -2v-87
q-26 -27 -65 -64q-63 62 -151 152zM449 190h2q1 0 21 -21v-258h86q3 0 3 -2q-57 -59 -110 -110h-2q-58 57 -110 110q1 2 3 2h86v258q0 1 21 21zM407 146l1 -2v-211q0 -3 -2 -3h-87q-27 26 -64 65q62 63 152 151zM494 146l151 -151q-26 -28 -64 -65h-87q-2 0 -2 3v211
q0 2 2 2z" />
    <glyph glyph-name="uniE826" unicode="&#xe826;" horiz-adv-x="999" 
d="M393 577h2q88 0 139 -28v-2q-34 -104 -39 -106q-58 19 -112 19q-178 0 -230 -194q-4 -35 -4 -55v-15q0 -113 104 -151q29 -8 57 -8h17q53 0 111 19q8 -50 8 -110q-66 -26 -161 -26h-7q-192 0 -263 168q-15 53 -15 104q0 253 240 359q72 26 153 26zM757 570h6
q181 0 227 -123q7 -25 9 -55q0 -131 -125 -202q-76 -36 -164 -36l-57 4l-45 -229h-128q-4 0 -4 4l117 618q54 19 164 19zM676 269q23 -5 53 -5q94 0 128 87q4 16 4 30q0 81 -100 81q-53 0 -53 -11q-34 -175 -34 -182h2z" />
    <glyph glyph-name="uniE827" unicode="&#xe827;" horiz-adv-x="988" 
d="M495 500q191 0 339 -69q37 -17 71 -43q83 -64 83 -137v-3q0 -76 -90 -142q-37 -27 -79 -45q-144 -61 -321 -61h-8q-182 0 -330 65q-43 20 -84 51q-76 62 -76 134q0 86 108 156q37 24 91 45q135 49 296 49zM435 441q-53 -269 -53 -271h59q27 141 30 155v1h49q23 0 29 -10
q2 -5 2 -12v0q0 -10 -13 -73q0 -2 -11 -61h59q24 123 26 139q0 4 1 8q0 34 -31 45q-20 7 -54 7h-48q-1 0 -1 1q9 45 14 71h-1h-56h-1zM189 369l-52 -271h58q13 68 15 72h50q64 0 92 29q23 21 30 39q12 26 12 56q0 52 -51 70q-18 5 -43 5h-111zM650 369q-46 -234 -53 -271h59
q10 53 14 72h51q65 0 94 31q14 13 20 24q20 31 20 69q0 52 -51 70q-19 5 -44 5h-110zM240 327h34q40 0 50 -12q9 -9 9 -25q0 -26 -15 -52q-11 -15 -30 -21q-14 -4 -41 -4h-29v1l22 112v1zM701 327h33q43 0 53 -14q6 -9 6 -23q0 -23 -12 -48q-9 -16 -27 -23q-14 -6 -47 -6
h-28q-1 0 -1 1l22 112z" />
    <glyph glyph-name="uniE828" unicode="&#xe828;" horiz-adv-x="635" 
d="M248 500q45 -128 78 -128q156 -21 258 -96q51 -51 51 -56q0 -6 -99 -19q-77 -18 -160 -43q3 -36 3 -53v-37q0 -118 -70 -267l-5 -3q-206 23 -251 67q-53 29 -53 61v11q0 26 21 45v-5q-5 -17 -5 -24q58 13 104 27q-16 33 -16 64q3 0 3 2h-3q-23 -13 -27 -13
q134 125 134 219q0 87 -112 165v3q74 54 149 80zM171 449q39 -10 93 -13v3q-16 26 -21 45q-69 -26 -72 -35zM163 441q12 -22 53 -48q53 23 53 30q-33 0 -106 18zM128 412q23 -11 27 -11l24 3q-30 28 -30 35q-21 -8 -21 -27zM232 393v-5q19 -5 21 -5h43q0 3 -21 29
q-32 -19 -43 -19zM139 396v-3q7 0 50 -48v6q-7 45 -45 45h-5zM189 383q16 -45 16 -59l59 45v3q-50 11 -75 11zM221 319v-3l62 -19v3q0 19 -6 64h-2q-33 -18 -54 -45zM285 364q9 -69 14 -69q29 29 80 53q-11 12 -83 16h-11zM309 289v-2q17 0 54 -27q24 35 32 85h-3
q-46 -20 -83 -56zM400 343v-6q0 -31 -26 -82h2q98 50 134 53v3q-85 32 -110 32zM384 252v-3q36 -32 56 -61q61 76 83 112h-3q-61 -16 -136 -48zM213 297l3 -13v-48h3q50 42 50 45v3q-46 13 -53 13h-3zM528 295q-21 -41 -74 -104h2q76 21 163 32q-64 72 -91 72zM216 212
q14 0 35 -19l29 80q-21 -14 -64 -61zM293 273q-37 -77 -37 -82h3q83 58 83 61q-30 18 -49 21zM259 180q10 -33 10 -48q19 21 81 104v3h-3q-88 -56 -88 -59zM363 233l-75 -93h3l136 43v2q-39 46 -64 48zM208 196q0 -4 -13 -40q37 23 37 27q0 8 -24 13zM165 89h3q31 16 93 40
q-3 44 -13 45q-31 -28 -83 -85zM152 100h3q40 24 40 32l-3 13h-3zM320 129v-3q29 -6 51 -32v3q0 43 -8 43zM296 121l-19 -88q74 39 89 51q-41 37 -70 37zM219 92v-6q17 -30 48 -48h2q8 34 11 67q-3 5 -3 8zM205 84l-64 -102q74 18 120 48q-15 0 -56 54zM117 33q0 -27 19 -40
h3q44 65 50 85h-2q-70 -24 -70 -40v-5zM280 25q42 -29 83 -32q5 4 5 77q-88 -42 -88 -45zM147 -26q21 -39 64 -53q56 72 56 101q-85 -41 -120 -48zM275 20q-9 -41 -56 -104h2q133 59 137 64q-22 0 -83 40zM16 -58v-8q0 -40 40 -56q55 56 61 88v3q-101 -22 -101 -27zM227 -87
q11 -21 107 -32q24 59 24 85q-75 -32 -131 -53zM131 -36q0 -15 -62 -91q47 -37 86 -40q48 49 48 72h-3q-49 -19 -120 -35v6q49 10 112 34q-34 26 -61 54zM213 -100q0 -15 -48 -70v-2q130 26 147 45q-25 0 -99 27zM192 -175q0 -10 109 -19q14 25 25 59h-3q-67 -27 -131 -40z
" />
    <glyph glyph-name="uniE829" unicode="&#xe829;" 
d="M641 507h5q21 0 53 -23q74 0 144 -99l47 -99q51 -21 79 -50q4 -1 14 -16q-13 -5 -55 -12q4 -9 42 -33q22 -24 22 -30q-24 19 -63 38q-21 18 -23 31q22 11 39 11h19v2q-40 35 -80 44q-10 4 -50 100q-64 99 -143 99q-23 19 -48 25q-8 -3 -8 -10q9 -17 26 -40q15 -39 26 -63
q8 -5 12 -16q-11 -35 -11 -44v-22q0 -26 17 -42h3q0 39 21 55q19 -56 58 -97h-2q-49 39 -53 61l-5 5q-2 -38 -12 -38h-8q-27 5 -31 66v3q0 19 11 50q-21 26 -37 78q-26 31 -26 44v5q3 17 17 17zM699 445h9q10 -6 10 -15q-1 -7 -5 -7h-3q0 6 -11 18v4zM34 192h4q26 0 44 -58
q13 -28 31 -72h1q50 116 60 125q12 5 17 5h3q35 0 35 -23v-130q0 -4 -3 -4h-27q-3 0 -3 4v125h-2q-51 -118 -59 -125l-11 -4h-16q-22 0 -37 51q-6 8 -37 78h-1v-125q0 -4 -3 -4h-27q-3 0 -3 4v128q0 25 34 25zM583 189q3 0 3 -3v-16q0 -3 -3 -3h-94q-17 0 -17 -12v-16
q0 -16 19 -16h47q47 -6 47 -28v-25q0 -28 -51 -33h-92q-3 0 -3 3v16q0 3 3 3h86q24 0 24 16v14q0 14 -19 14h-9q-84 0 -84 25q-1 0 -1 5v23q5 33 45 33h99zM716 189q54 0 54 -39v-75q0 -30 -19 -30v-2l30 -28l-4 -1h-31q-3 0 -28 25q-19 -4 -53 -4q-51 0 -58 32v92
q0 26 54 30h55zM793 189h27q3 0 3 -3v-108q0 -19 25 -19h85q3 -1 3 -3v-16q0 -3 -3 -3h-77q-66 0 -66 41v108q0 3 3 3zM641 147v-68q0 -22 30 -22h23v4q-3 0 -23 20v1h31q6 0 28 -20q5 1 8 8v81q0 16 -26 16h-43q-28 0 -28 -20zM259 144l9 -2q3 2 5 2v-2l3 2h11q3 -1 3 -4
v-70q0 -13 22 -13h67v83q1 4 3 4h29q3 -1 3 -4v-109q0 -41 -57 -41h-97q-3 0 -3 3v17q1 4 3 4h102q12 0 17 9v14h-45q-79 0 -79 35v68q1 4 4 4zM975 84q21 0 25 -22v-6q0 -17 -24 -21h-3q-17 0 -22 26q6 23 24 23zM958 62v-5q2 -17 17 -17q20 3 20 19q0 12 -12 19h-10
q-15 -3 -15 -16zM970 73h11q3 0 6 -6v-5l-6 -6l6 -10v-1h-3q-9 12 -11 12l-3 -1l2 -3v-5q0 -3 -3 -3l-2 3v22q1 3 3 3zM970 65q2 -3 2 -4h1q8 0 10 4q0 1 -5 5q-2 0 -8 -5z" />
    <glyph glyph-name="uniE830" unicode="&#xe830;" horiz-adv-x="1001" 
d="M651 646q48 -63 113 -186h-113q-4 0 -58 86h-168q-3 0 -86 -151q86 -161 93 -161h154q2 8 45 76v3h-154q-52 8 -52 45v10q0 48 72 48h291q7 -1 7 -7q-137 -256 -147 -264h-285q-8 0 -144 257v4q7 5 134 240h298zM501 53h13q17 -9 17 -28v-48q0 -7 -7 -7h-30q-7 0 -7 7v52
q0 18 14 24zM27 49h14q10 -5 124 -140v126q0 6 13 14h21q14 -5 14 -24v-158q0 -27 -28 -27q-33 0 -106 106q-28 25 -28 35h-3v-124q-9 -17 -27 -17q-14 0 -21 14v178q9 17 27 17zM285 49h116q12 -11 48 -75l-7 -4h-37l-28 35h-72q-11 -32 -31 -59q34 -68 41 -68h62
q0 6 17 31h-51q-34 0 -34 24q7 20 27 20h120q7 -1 7 -7q-61 -106 -65 -106h-110q-29 31 -62 110q48 94 59 99zM576 49h7q18 0 24 -14v-126q115 140 130 140h7q19 0 27 -17v-175q0 -5 -13 -14h-21q-14 6 -14 24v114h-3q-94 -131 -127 -138h-17q-17 9 -17 28v151q0 18 17 27z
M806 49h20q5 0 72 -65q55 65 79 65h10q6 0 14 -14v-10q0 -19 -65 -82q61 -56 65 -69v-20q0 -6 -14 -14h-10q-19 0 -82 65q-55 -65 -79 -65t-24 24q0 19 65 82q-65 56 -65 79q0 19 14 24zM494 -47h30q7 -1 7 -7v-79q0 -18 -17 -27h-3q-24 0 -24 31v75q1 7 7 7z" />
    <glyph glyph-name="uniE831" unicode="&#xe831;" horiz-adv-x="1001" 
d="M345 590q69 0 188 -53q8 24 29 35h6q0 -42 35 -128q-64 17 -94 17l-35 -6l-6 12q11 0 35 41q-95 47 -169 47q-212 0 -287 -234q-6 -6 -12 -70q0 -202 217 -287q23 -12 64 -12h47q96 0 193 88h29q12 -2 12 -12q-117 -117 -257 -117q-240 0 -328 263q-6 14 -12 77
q0 241 269 333q50 6 76 6zM193 426q38 0 59 -41v-47q0 -11 -12 -11h-23q-11 0 -18 52h-18v-29q0 -41 65 -111l6 -29v-59q0 -53 -65 -53q-58 0 -58 71v17q2 12 11 12h30q11 0 17 -59h6q12 0 12 12v41q0 20 -70 117q0 34 -6 41q7 76 64 76zM755 403q11 0 18 -53q6 0 6 -6v-17
l-12 -18v-199q0 -12 -12 -12h-23q-12 0 -12 12v199l-12 18v17q11 13 18 59h29zM287 356h12q13 0 23 -6q10 6 23 6h18l23 -18q6 18 35 18h12q29 -15 29 -47v-199q0 -12 -11 -12h-18q-12 0 -12 12v176l-5 29h-24v-205q0 -12 -12 -12h-23q-12 0 -12 12v205h-17q-12 -2 -12 -12
v-193q0 -12 -12 -12h-17q-12 0 -12 12v234q2 12 12 12zM515 356h24l17 -12q2 12 12 12h29v-246q0 -12 -12 -12h-17q-12 0 -12 12q-19 -12 -35 -12h-6q-29 15 -29 47v152q0 46 29 59zM632 356h24l17 -12q2 12 12 12l6 -12v-23l-24 -24v-187q0 -12 -11 -12h-24q-12 0 -12 12
v234q2 12 12 12zM831 356h41q35 -21 35 -53v-76q0 -12 -11 -12h-59v-64q2 -12 12 -12h11v30q2 11 12 11h24q11 -2 11 -11v-18q-7 -53 -52 -53h-6q-32 0 -53 35v188q0 8 35 35zM942 356h18q12 0 12 -18h6q0 18 11 18q12 -2 12 -12v-23q-29 -18 -29 -76v-135q0 -12 -12 -12
h-18q-11 0 -11 12v234q2 12 11 12zM849 321l-12 -18v-52h23v58q0 12 -11 12zM533 315l-6 -29v-135q2 -12 12 -12h5q12 0 12 12v152q0 12 -12 12h-11z" />
    <glyph glyph-name="uniE832" unicode="&#xe832;" horiz-adv-x="995" 
d="M296 700q55 0 89 -52q14 -26 14 -51q0 -4 -6 -43q-3 -23 -3 -51q0 -50 17 -64q36 -40 64 -50l5 -3q20 6 39 6q77 0 129 -70q26 -41 26 -85q0 -84 -77 -135q-40 -21 -78 -21q-81 0 -133 74q-22 39 -22 75v12q0 47 35 94v1q0 47 -29 102q-20 23 -76 51q-8 4 -36 12
q-61 34 -61 94q0 56 51 89q26 15 52 15zM671 700q58 0 91 -56q12 -23 12 -48q0 -55 -51 -88q-26 -15 -52 -15q-60 0 -94 62q-8 23 -8 39v5q0 59 62 93q22 7 40 8zM893 372q58 0 91 -57q11 -21 11 -43v-6q0 -52 -50 -85q-25 -15 -48 -15h-7q-57 0 -90 57q-10 23 -10 47
q0 56 54 90q25 12 49 12zM100 355h5q56 0 90 -56q10 -23 10 -47q0 -56 -54 -89q-23 -13 -48 -13q-60 0 -92 57q-11 21 -11 43v7q0 53 55 88q25 10 45 10zM299 9q62 0 96 -63q8 -22 8 -41q0 -62 -63 -95q-24 -8 -40 -8q-59 0 -94 60q-9 23 -9 41v5q0 59 63 92q24 8 39 9z
M710 9q62 0 95 -62q9 -22 9 -42q0 -55 -52 -88q-26 -15 -51 -15q-60 0 -94 60q-9 21 -9 38v10q0 51 53 85q25 14 49 14z" />
    <glyph glyph-name="uniE833" unicode="&#xe833;" horiz-adv-x="997" 
d="M596 620q172 0 248 -180q0 -16 52 -30q102 -64 102 -157v-23q0 -103 -117 -161q-31 -15 -82 -15h-274v-75h41q27 -11 27 -45v-23q0 -41 -49 -41h-90q-49 0 -49 41v23q0 34 26 45h42v75h-312q-161 20 -161 150v15q0 99 120 142q20 4 38 4h18q0 74 98 113q14 3 30 3h7
q28 0 53 -11q81 150 232 150zM150 -55h221v-37l4 -8l-7 -4h-203q-20 0 -30 19v4q0 20 15 26zM634 -55h214q15 -6 15 -26v-4q-10 -19 -30 -19h-207v42q1 7 8 7z" />
    <glyph glyph-name="uniE834" unicode="&#xe834;" horiz-adv-x="957" 
d="M483 700q81 0 110 -89q3 -20 3 -23q0 -64 -94 -134q-98 -89 -98 -91h445q72 0 103 -82q5 -10 5 -31q0 -80 -86 -110q-13 -2 -22 -2h-445q179 -161 182 -177q10 -35 10 -48q0 -84 -91 -110q-9 -3 -22 -3q-55 0 -124 75q-318 286 -335 306q-24 31 -24 69q0 69 105 144
q319 296 333 296q21 10 45 10z" />
    <glyph glyph-name="uniE835" unicode="&#xe835;" horiz-adv-x="999" 
d="M756 698q43 0 54 -47v-23q0 -34 -195 -234q-168 -188 -183 -199q-25 12 -43 35v4q268 381 324 448q33 16 43 16zM39 600h570v-8q-29 -45 -43 -55h-504v-476h874v476h-8q-45 0 -144 4v4q14 24 51 55h125q31 0 39 -43v-488q0 -33 -4 -105l-24 -20h-944l-23 20q-4 99 -4 144
v332q0 156 20 156zM334 210h32q62 -18 62 -58q-18 -51 -109 -51h-90q-8 0 -8 8q78 6 78 55q16 36 35 46zM597 -95q5 -5 23 -66q6 0 28 -27v-8h-297v8q40 33 47 93h199z" />
    <glyph glyph-name="uniE836" unicode="&#xe836;" horiz-adv-x="899" 
d="M346 700h31q92 -18 92 -92v-77h176q81 0 85 -123v-131h54q115 -13 115 -115q-26 -100 -92 -100h-77v-153q0 -108 -100 -108h-138q-16 0 -16 15v46q-17 116 -92 116h-38q-108 0 -108 -177h-153q-85 15 -85 77v161q2 16 15 16h46q116 0 116 123q0 82 -108 99h-54
q-15 0 -15 16v161q15 77 77 77h177v61q13 108 92 108z" />
    <glyph glyph-name="uniE837" unicode="&#xe837;" 
d="M247 550q14 -10 59 -96l-164 -201l164 -205q-47 -86 -59 -92q-18 13 -247 297q226 277 247 297zM636 550l9 -5l-174 -584l-9 -5h-91l-9 5l173 589h101zM749 550h4q69 -73 247 -297l-237 -297h-10q-54 74 -54 96l159 197v4l-159 201q0 10 50 96z" />
    <glyph glyph-name="uniE838" unicode="&#xe838;" 
d="M897 458q1 -9 1 -27q0 -223 -150 -393q-168 -190 -434 -190q-171 0 -314 92q22 -3 49 -3q143 0 255 88q-67 1 -120 41q-52 39 -72 101q21 -3 39 -3q27 0 54 7q-72 14 -118 70q-47 57 -47 131v3q43 -25 93 -26q-92 61 -92 170q0 56 28 104q163 -201 423 -215q-5 25 -5 47
q0 85 60 145t145 60q89 0 150 -64q70 13 130 49q-23 -73 -90 -113q59 6 118 32q-43 -62 -103 -106z" />
    <glyph glyph-name="uniE839" unicode="&#xe839;" horiz-adv-x="467" 
d="M467 550h-84q-47 0 -65 -22q-15 -17 -15 -56v-102h159l-21 -160h-138v-410h-165v410h-138v160h138v118q0 101 57 157q55 54 149 54q79 0 123 -7v-142z" />
    <glyph glyph-name="uniE840" unicode="&#xe840;" horiz-adv-x="898" 
d="M796 320h-78q11 -37 11 -77q0 -112 -81 -192q-82 -78 -198 -78t-197 78q-82 80 -82 192q0 40 11 77h-82v-380q0 -14 10 -25q11 -10 25 -10h626q14 0 25 10q10 11 10 25v380zM577 376q-52 52 -127 52t-127 -52q-54 -51 -54 -123q0 -73 54 -124q52 -51 127 -51t127 51
q54 51 54 124q0 72 -54 123zM796 560q0 16 -11 28q-13 11 -28 11h-103q-16 0 -28 -11q-12 -12 -12 -28v-97q0 -17 12 -28q12 -13 28 -13h103q15 0 28 13q11 11 11 28v97zM898 -83q0 -48 -34 -81q-34 -34 -81 -34h-668q-47 0 -81 34q-34 33 -34 81v668q0 47 34 80
q34 35 81 35h668q47 0 81 -35q34 -33 34 -80v-668z" />
    <glyph glyph-name="uniE841" unicode="&#xe841;" horiz-adv-x="904" 
d="M900 662l-128 -771q-2 -14 -16 -23q-7 -3 -16 -3q-6 0 -12 2l-228 93l-121 -148q-9 -12 -24 -12q-7 0 -11 2q-22 8 -22 30v176l434 532l-536 -465l-199 81q-18 8 -20 27q-1 21 16 30l835 483q8 4 17 4q10 0 18 -5q17 -12 13 -33z" />
    <glyph glyph-name="uniE842" unicode="&#xe842;" horiz-adv-x="678" 
d="M515 700q6 -37 6 -51q0 -29 -9 -63q-10 -29 -62 -75q-77 -67 -157 -97q-35 -15 -66 -23q-59 -14 -99 -14v-1q0 -2 38 -68h1q36 22 60 22h4q43 0 63 -43q11 -24 11 -54q0 -23 -10 -69q-16 -49 -64 -107q-31 -34 -50 -47q-21 -15 -40 -15h-2q-38 0 -71 48q-68 95 -68 206v4
q0 140 98 255q43 44 65 57q29 20 57 33q25 12 62 21q36 8 137 19q29 6 54 18q30 16 41 44h1zM216 520q0 -34 36 -61q16 -10 31 -10q22 0 31 22q3 8 3 16q0 34 -36 61q-15 9 -28 9h-4q-25 0 -33 -29v-8zM544 510q55 0 88 -42q13 -20 25 -54q21 -61 21 -121q0 -64 -24 -135
q-59 -146 -198 -212q-57 -26 -156 -54q-39 -14 -63 -30q-31 -22 -40 -53q-2 -8 -2 -9v0q-13 25 -19 50q-4 21 -4 36v8q0 31 27 69q50 75 129 127q93 58 169 58h3q29 0 62 -16h1q-12 80 -13 80v0q-30 -7 -49 -7h-1q-40 0 -79 29q-41 40 -41 96q0 55 40 109q29 33 46 41
q22 15 53 27q10 3 25 3z" />
  </font>
</defs>
</svg>
