<?xml version="1.0" encoding="UTF-8" standalone="no"?>
<!DOCTYPE svg PUBLIC "-//W3C//DTD SVG 1.1//EN" "http://www.w3.org/Graphics/SVG/1.1/DTD/svg11.dtd">
<svg width="100%" height="100%" viewBox="0 0 160 95" version="1.1" xmlns="http://www.w3.org/2000/svg" xmlns:xlink="http://www.w3.org/1999/xlink" xml:space="preserve" xmlns:serif="http://www.serif.com/" style="fill-rule:evenodd;clip-rule:evenodd;stroke-linejoin:round;stroke-miterlimit:2;">
    <g transform="matrix(0.693431,0,0,0.693431,0,0)">
        <path d="M211.496,81.352L193.028,70.699L193.028,67.142L211.496,77.794L229.993,67.125L229.993,70.682L211.496,81.352ZM182.636,67.067L206.27,53.435L206.27,56.992L182.636,70.624L182.636,67.067ZM85.126,95.096L181.774,39.349L181.774,42.906L85.126,98.653L85.126,95.096ZM85.138,42.906L85.138,39.349L115.001,22.124L145.058,39.462L145.058,43.019L115.001,25.682L85.138,42.906ZM109.198,53.103L109.198,56.66L90.655,67.355L48.268,42.906L48.268,39.349L90.655,63.798L109.198,53.103ZM23.727,53.436L47.455,67.123L47.455,70.68L23.727,56.993L23.727,53.436ZM36.999,70.685L18.499,81.356L0,70.685L0,67.128L18.499,77.799L36.999,67.128L36.999,70.685ZM84.447,67.123L84.447,70.68L42.218,95.037L23.727,84.371L23.727,80.814L42.218,91.48L84.447,67.123ZM181.774,94.915L181.774,98.464L114.967,136.998L48.317,98.555L48.317,95.006L114.967,133.45L181.774,94.915ZM151.13,102.211L121.072,84.873L121.072,81.316L151.13,98.653L151.13,102.211ZM145.541,67.125L187.767,91.481L206.27,80.809L206.27,84.366L187.767,95.038L145.541,70.682L145.541,67.125Z" style="fill:rgb(36,27,98);fill-opacity:0.7;"/>
    </g>
    <g transform="matrix(0.693431,0,0,0.693431,0,0)">
        <path d="M211.501,77.005L193,66.333L211.501,55.662L230.002,66.333L211.501,77.005ZM206.269,80.022L187.768,90.694L164.036,77.005L145.536,66.333L187.768,41.973L206.269,52.645L182.537,66.333L206.269,80.022ZM181.747,38.571L85.328,94.186L115.001,111.301L144.715,94.162L121.073,80.525L139.569,69.856L163.211,83.493L163.31,83.436L181.806,94.104L115.001,132.638L114.967,132.658L66.798,104.874L66.793,104.877L48.292,94.206L144.807,38.535L114.996,21.34L85.227,38.511L109.198,52.338L90.655,63.033L66.684,49.207L66.651,49.226L48.155,38.557L96.5,10.672L115.001,0L133.497,10.669L181.806,38.534L181.745,38.57L181.747,38.571ZM84.451,66.333L84.456,66.336L42.228,90.694L23.727,80.022L47.459,66.333L23.727,52.645L42.228,41.973L84.456,66.331L84.451,66.333ZM18.496,77.002L0,66.333L18.496,55.665L36.992,66.333L18.496,77.002Z" style="fill:rgb(80,59,217);"/>
    </g>
</svg>
