<?xml version="1.0" encoding="UTF-8" standalone="no"?>
<svg
   xmlns:dc="http://purl.org/dc/elements/1.1/"
   xmlns:cc="http://creativecommons.org/ns#"
   xmlns:rdf="http://www.w3.org/1999/02/22-rdf-syntax-ns#"
   xmlns:svg="http://www.w3.org/2000/svg"
   xmlns="http://www.w3.org/2000/svg"
   xmlns:sodipodi="http://sodipodi.sourceforge.net/DTD/sodipodi-0.dtd"
   xmlns:inkscape="http://www.inkscape.org/namespaces/inkscape"
   inkscape:version="1.0 (4035a4fb49, 2020-05-01)"
   inkscape:export-ydpi="96"
   inkscape:export-xdpi="96"
   inkscape:export-filename="D:\Project_Naav\Web\Site\img\logo.png"
   sodipodi:docname="logo_mobile.svg"
   id="svg10"
   style="clip-rule:evenodd;fill-rule:evenodd;stroke-linejoin:round;stroke-miterlimit:2"
   xml:space="preserve"
   version="1.1"
   viewBox="0 0 200 120"
   height="120"
   width="200"><metadata
   id="metadata16"><rdf:RDF><cc:Work
       rdf:about=""><dc:format>image/svg+xml</dc:format><dc:type
         rdf:resource="http://purl.org/dc/dcmitype/StillImage" /><dc:title></dc:title></cc:Work></rdf:RDF></metadata><defs
   id="defs14" /><sodipodi:namedview
   inkscape:current-layer="svg10"
   inkscape:window-maximized="1"
   inkscape:window-y="-8"
   inkscape:window-x="-8"
   inkscape:cy="67.042069"
   inkscape:cx="106.3719"
   inkscape:zoom="5.0248776"
   showgrid="false"
   id="namedview12"
   inkscape:window-height="1017"
   inkscape:window-width="1920"
   inkscape:pageshadow="2"
   inkscape:pageopacity="0"
   guidetolerance="10"
   gridtolerance="10"
   objecttolerance="10"
   borderopacity="1"
   bordercolor="#666666"
   pagecolor="#ffffff" />
    <g
   id="g4"
   transform="scale(0.86774872)">
        <path
   id="path2"
   style="fill:#241b62;fill-opacity:0.7"
   d="M 211.496,81.352 193.028,70.699 v -3.557 l 18.468,10.652 18.497,-10.669 v 3.557 z M 182.636,67.067 206.27,53.435 v 3.557 l -23.634,13.632 z m -97.51,28.029 96.648,-55.747 v 3.557 L 85.126,98.653 Z m 0.012,-52.19 v -3.557 l 29.863,-17.225 30.057,17.338 v 3.557 L 115.001,25.682 Z m 24.06,10.197 V 56.66 L 90.655,67.355 48.268,42.906 V 39.349 L 90.655,63.798 Z M 23.727,53.436 47.455,67.123 V 70.68 L 23.727,56.993 Z M 36.999,70.685 18.499,81.356 0,70.685 v -3.557 l 18.499,10.671 18.5,-10.671 z M 84.447,67.123 V 70.68 L 42.218,95.037 23.727,84.371 V 80.814 L 42.218,91.48 Z m 97.327,27.792 v 3.549 l -66.807,38.534 -66.65,-38.443 v -3.549 l 66.65,38.444 z m -30.644,7.296 -30.058,-17.338 v -3.557 l 30.058,17.337 z m -5.589,-35.086 42.226,24.356 18.503,-10.672 v 3.557 L 187.767,95.038 145.541,70.682 Z" />
    </g>
    <g
   id="g8"
   transform="scale(0.86774872)">
        <path
   id="path6"
   style="fill:#503bd9"
   d="M 211.501,77.005 193,66.333 211.501,55.662 230.002,66.333 Z m -5.232,3.017 -18.501,10.672 -23.732,-13.689 -18.5,-10.672 42.232,-24.36 18.501,10.672 -23.732,13.688 z m -24.522,-41.451 -96.419,55.615 29.673,17.115 29.714,-17.139 -23.642,-13.637 18.496,-10.669 23.642,13.637 0.099,-0.057 18.496,10.668 -66.805,38.534 -0.034,0.02 -48.169,-27.784 -0.005,0.003 L 48.292,94.206 144.807,38.535 114.996,21.34 85.227,38.511 109.198,52.338 90.655,63.033 66.684,49.207 66.651,49.226 48.155,38.557 96.5,10.672 115.001,0 l 18.496,10.669 48.309,27.865 -0.061,0.036 z M 84.451,66.333 84.456,66.336 42.228,90.694 23.727,80.022 47.459,66.333 23.727,52.645 42.228,41.973 84.456,66.331 Z M 18.496,77.002 0,66.333 18.496,55.665 36.992,66.333 Z" />
    </g>
</svg>
